# File produced by Open Asset Import Library (http://www.assimp.sf.net)
# (assimp v5.0.1588609223)

mtllib result.mtl

# 33 vertex positions and colors
v  2014.396 -40.898193 -834.39014 0.26679641 0.53631037 0.10434264
v  0 -40.898193 0 0.26679644 0.53631037 0.10434264
v  2180.3665 -40.898193 -1.9493851e-12 0.26679641 0.53631037 0.10434264
v  1541.752 -40.898193 -1541.752 0.26679641 0.53631037 0.10434264
v  834.39014 -40.898193 -2014.396 0.26679641 0.53631037 0.10434264
v  2.0350763e-12 -40.898193 -2180.3665 0.26679641 0.53631037 0.10434264
v  -834.39014 -40.898193 -2014.396 0.26679641 0.53631037 0.10434264
v  -1541.752 -40.898193 -1541.752 0.26679641 0.53631037 0.10434264
v  -2014.396 -40.898193 -834.39014 0.26679641 0.53631037 0.10434264
v  -2180.3665 -40.898193 -2.2050647e-12 0.26679641 0.53631037 0.10434264
v  -2014.396 -40.898193 834.39014 0.26679641 0.53631037 0.10434264
v  -1541.752 -40.898193 1541.752 0.26679641 0.53631037 0.10434264
v  -834.39014 -40.898193 2014.396 0.26679641 0.53631037 0.10434264
v  1.4478498e-12 -40.898193 2180.3665 0.26679641 0.53631037 0.10434264
v  834.39014 -40.898193 2014.396 0.26679641 0.53631037 0.10434264
v  1541.752 -40.898193 1541.752 0.26679641 0.53631037 0.10434264
v  2014.396 -40.898193 834.39014 0.26679641 0.53631037 0.10434264
v  30769.963 -40.898193 0 0.52549022 0.64705884 0.80000001
v  28427.738 -40.898193 -11775.155 0.52549022 0.64705884 0.80000001
v  21757.65 -40.898193 -21757.65 0.52549022 0.64705884 0.80000001
v  11775.155 -40.898193 -28427.738 0.52549022 0.64705884 0.80000001
v  1.8841168e-12 -40.898193 -30769.963 0.52549022 0.64705884 0.80000001
v  -11775.155 -40.898193 -28427.738 0.52549022 0.64705884 0.80000001
v  -21757.65 -40.898193 -21757.65 0.52549022 0.64705884 0.80000001
v  -28427.738 -40.898193 -11775.155 0.52549022 0.64705884 0.80000001
v  -30769.963 -40.898193 -3.7682336e-12 0.52549022 0.64705884 0.80000001
v  -28427.738 -40.898193 11775.155 0.52549022 0.64705884 0.80000001
v  -21757.65 -40.898193 21757.65 0.52549022 0.64705884 0.80000001
v  -11775.155 -40.898193 28427.738 0.52549022 0.64705884 0.80000001
v  -5.6523505e-12 -40.898193 30769.963 0.52549022 0.64705884 0.80000001
v  11775.155 -40.898193 28427.738 0.52549022 0.64705884 0.80000001
v  21757.65 -40.898193 21757.65 0.52549022 0.64705884 0.80000001
v  28427.738 -40.898193 11775.155 0.52549022 0.64705884 0.80000001

# 0 UV coordinates

# 1 vertex normals
vn 0 1 0

# Mesh 'grass' with 32 faces
g grass
usemtl DefaultMaterial
f  1//1 2//1 3//1
f  4//1 2//1 1//1
f  5//1 2//1 4//1
f  6//1 2//1 5//1
f  7//1 2//1 6//1
f  8//1 2//1 7//1
f  9//1 2//1 8//1
f  10//1 2//1 9//1
f  11//1 2//1 10//1
f  12//1 2//1 11//1
f  13//1 2//1 12//1
f  14//1 2//1 13//1
f  15//1 2//1 14//1
f  16//1 2//1 15//1
f  17//1 2//1 16//1
f  3//1 2//1 17//1
f  3//1 18//1 19//1 1//1
f  1//1 19//1 20//1 4//1
f  4//1 20//1 21//1 5//1
f  5//1 21//1 22//1 6//1
f  6//1 22//1 23//1 7//1
f  7//1 23//1 24//1 8//1
f  8//1 24//1 25//1 9//1
f  9//1 25//1 26//1 10//1
f  10//1 26//1 27//1 11//1
f  11//1 27//1 28//1 12//1
f  12//1 28//1 29//1 13//1
f  13//1 29//1 30//1 14//1
f  14//1 30//1 31//1 15//1
f  15//1 31//1 32//1 16//1
f  16//1 32//1 33//1 17//1
f  17//1 33//1 18//1 3//1

